<?xml version="1.0" encoding="UTF-8" standalone="no"?>
<!-- Created with Inkscape (http://www.inkscape.org/) -->

<svg
   xmlns:dc="http://purl.org/dc/elements/1.1/"
   xmlns:cc="http://creativecommons.org/ns#"
   xmlns:rdf="http://www.w3.org/1999/02/22-rdf-syntax-ns#"
   xmlns:svg="http://www.w3.org/2000/svg"
   xmlns="http://www.w3.org/2000/svg"
   xmlns:sodipodi="http://sodipodi.sourceforge.net/DTD/sodipodi-0.dtd"
   xmlns:inkscape="http://www.inkscape.org/namespaces/inkscape"
   width="112.88889mm"
   height="43.219795mm"
   viewBox="0 0 399.99996 153.14101"
   id="svg2"
   version="1.1"
   inkscape:version="0.91 r13725"
   sodipodi:docname="ic.svg">
  <defs
     id="defs4">
    <pattern
       y="0"
       x="0"
       height="6"
       width="6"
       patternUnits="userSpaceOnUse"
       id="EMFhbasepattern" />
  </defs>
  <sodipodi:namedview
     id="base"
     pagecolor="#ffffff"
     bordercolor="#666666"
     borderopacity="1.0"
     inkscape:pageopacity="0.0"
     inkscape:pageshadow="2"
     inkscape:zoom="1.979899"
     inkscape:cx="128.31399"
     inkscape:cy="66.006327"
     inkscape:document-units="px"
     inkscape:current-layer="layer1"
     showgrid="false"
     fit-margin-top="0"
     fit-margin-left="0"
     fit-margin-right="0"
     fit-margin-bottom="0"
     inkscape:window-width="1366"
     inkscape:window-height="715"
     inkscape:window-x="-4"
     inkscape:window-y="26"
     inkscape:window-maximized="1">
    <inkscape:grid
       type="xygrid"
       id="grid4172" />
  </sodipodi:namedview>
  <metadata
     id="metadata7">
    <rdf:RDF>
      <cc:Work
         rdf:about="">
        <dc:format>image/svg+xml</dc:format>
        <dc:type
           rdf:resource="http://purl.org/dc/dcmitype/StillImage" />
        <dc:title></dc:title>
      </cc:Work>
    </rdf:RDF>
  </metadata>
  <g
     inkscape:label="Layer 1"
     inkscape:groupmode="layer"
     id="layer1"
     transform="translate(-24.176989,-257.96777)">
    <rect
       style="fill:none;fill-opacity:1;stroke:none;stroke-width:4.28412151;stroke-linecap:round;stroke-linejoin:round;stroke-miterlimit:4;stroke-dasharray:none;stroke-dashoffset:0;stroke-opacity:1"
       id="rect4155-4"
       width="50"
       height="50"
       x="24.176973"
       y="361.1088" />
    <path
       style="fill:#f9f9f9;fill-opacity:1;fill-rule:evenodd;stroke:none"
       d="m 41.028681,282.52727 c 2.286524,1.58544 4.526498,3.26009 6.530548,5.19096 1.541003,0.95697 3.633154,0.20523 4.585258,-1.23532 1.331719,-1.25292 2.891297,-2.22954 4.250264,-3.45036 1.536199,-0.30497 0.868283,1.9173 0.937828,2.82648 -0.0048,1.69869 0.149823,3.40501 -0.06098,5.09744 -0.590498,1.10552 -2.000799,0.52486 -2.985981,0.58793 -3.759806,0.0797 -7.520046,0.0165 -11.2805,0.0268 -1.277037,0.63191 -2.526783,-0.93199 -2.022589,-2.14281 0.192051,-2.01633 -0.04679,-4.0433 0.04949,-6.06576 3.79e-4,-0.27847 -3.93e-4,-0.55708 -0.0033,-0.8354 z m 1.50986,-1.84509 c 4.427577,0 8.855153,0 13.28273,0 -2.002373,1.96638 -4.236705,3.67533 -6.496741,5.33164 -2.074561,-1.24384 -3.769,-3.00183 -5.697683,-4.44675 -0.362769,-0.29496 -0.725537,-0.58993 -1.088306,-0.88489 z m -3.4584,11.24439 c 0.583889,1.6115 2.567897,1.78439 4.035702,1.66871 4.774248,-0.10434 9.550892,0.0249 14.324513,-0.12166 1.629686,-0.25449 2.251058,-2.10327 1.924362,-3.53963 -0.05246,-3.24012 0.350244,-6.50357 -0.165543,-9.7241 -0.748303,-1.68805 -2.866946,-1.71787 -4.443696,-1.58315 -4.577626,0.17052 -9.167369,-0.18857 -13.738587,0.11555 -1.583179,0.23326 -2.272398,1.86286 -2.025296,3.30462 9.25e-4,3.23773 -0.243101,6.4894 0.06975,9.71843 l 0.0188,0.16123 0,0 z"
       id="path4141"
       inkscape:connector-curvature="0" />
    <path
       inkscape:connector-curvature="0"
       id="path4143"
       d="m 47.517323,382.02736 c 0.22443,-1.12042 -1.6221,-3.90257 -2.66268,-4.05723 -0.40806,-0.0579 -0.6733,0.0677 -0.91815,0.24159 -1.11199,0.82098 -2.10157,1.62277 -2.55044,3.10077 -1.0814,3.55516 1.6935,6.9167 3.79507,9.16771 2.28518,2.43417 5.89663,4.79129 9.48766,3.33276 0.70392,-0.28984 2.30561,-1.45881 2.48923,-2.04809 0.29585,-0.9079 -0.75492,-1.61318 -1.2242,-2.0478 -0.13264,-0.12559 -0.45909,-0.39624 -0.62233,-0.51223 -0.97936,-0.6858 -2.04035,-1.33294 -3.18296,-0.28956 -1.16301,1.05297 -1.53026,1.56492 -2.99931,0.69539 -1.00999,-0.60847 -4.18273,-3.64179 -3.74408,-5.17793 0.26526,-0.94657 1.88734,-1.15909 2.13219,-2.40538 z"
       style="fill:#f9f9f9;fill-opacity:1;fill-rule:evenodd;stroke:none" />
    <path
       inkscape:connector-curvature="0"
       id="path4145"
       d="m 46.088397,332.33488 c 1.43843,-0.43462 1.06099,0.89832 1.06099,2.03821 0,0.95645 0.18361,2.32834 -0.27545,2.9464 -1.23444,0.20292 -0.88756,-1.04309 -0.88756,-2.0574 0,-0.86952 -0.14284,-2.23153 0.10202,-2.92721 z m -2.7953,3.93164 c 0.65292,0.0195 2.9177,-0.17385 2.04036,0.91779 -0.19383,0.25118 -2.83611,0.49276 -3.14215,-0.0965 0,0 -0.34685,-4.4244 0.13261,-4.75291 0.32648,-0.22211 0.78554,-0.11599 0.91816,0.18373 z m 5.58038,1.04338 c -1.26503,0.20291 -0.92837,-0.89832 -0.92837,-1.9321 0,-0.50235 -0.10202,-2.64668 0.11221,-2.9464 0.63252,-0.85965 1.77513,0.99512 2.34643,1.77772 l 0.77535,0.86925 c 0.0408,-0.90791 -0.14284,-2.1638 0.23464,-2.79175 1.35684,-0.22211 0.96915,0.88872 0.96915,1.98036 0,0.88871 0.11224,2.19286 -0.0918,2.95599 -0.97937,0.39596 -1.0712,-0.22211 -2.32602,-1.82569 -0.29585,-0.37677 -0.44888,-0.65702 -0.81613,-0.86953 -0.0102,1.1399 0.17342,2.21234 -0.27545,2.78215 z m 7.53912,-4.13456 c -0.66311,0.18345 -1.33644,0.12559 -2.04036,0.12559 l -0.051,0.94686 c 1.60167,0 2.26478,-0.20292 2.09136,0.86924 -0.68352,0.3477 -1.1222,0.22211 -2.08117,0.23199 l 0,0.90791 c 0.91816,0.0291 1.47927,-0.12559 2.09138,0.25117 0.13262,1.06257 -0.5509,0.86953 -1.49967,0.86953 -2.11178,-0.01 -1.78531,0.22211 -1.78531,-3.56475 l 0.0714,-1.48759 c 1.45886,-0.19332 1.6935,-0.15466 3.16255,-0.0192 z m -9.06938,-6.72344 c -3.19318,0.45404 -5.662,1.72918 -7.11065,3.3521 -1.6527,1.83549 -2.84631,4.64642 -1.37725,7.66055 1.36704,2.78215 4.28476,4.64651 7.62074,5.24539 0.74473,0.13518 1.7445,0.15465 1.90774,0.79219 0.34685,1.41027 -1.91796,4.18282 3.54003,0.72447 2.32599,-1.478 5.61097,-3.69034 7.04943,-5.91199 4.23373,-6.55941 -3.58084,-12.98327 -11.63004,-11.86271 z"
       style="fill:#f9f9f9;fill-opacity:1;fill-rule:evenodd;stroke:none" />
    <rect
       style="fill:none;fill-opacity:1;stroke:none;stroke-width:4.28412151;stroke-linecap:round;stroke-linejoin:round;stroke-miterlimit:4;stroke-dasharray:none;stroke-dashoffset:0;stroke-opacity:1"
       id="rect4155"
       width="400"
       height="3.7888787"
       x="24.176973"
       y="407.31992" />
  </g>
</svg>
