<?xml version="1.0" encoding="UTF-8" standalone="no"?>
<!-- Created with Inkscape (http://www.inkscape.org/) -->

<svg
   xmlns:dc="http://purl.org/dc/elements/1.1/"
   xmlns:cc="http://creativecommons.org/ns#"
   xmlns:rdf="http://www.w3.org/1999/02/22-rdf-syntax-ns#"
   xmlns:svg="http://www.w3.org/2000/svg"
   xmlns="http://www.w3.org/2000/svg"
   xmlns:sodipodi="http://sodipodi.sourceforge.net/DTD/sodipodi-0.dtd"
   xmlns:inkscape="http://www.inkscape.org/namespaces/inkscape"
   width="112.88889mm"
   height="43.219795mm"
   viewBox="0 0 399.99996 153.14101"
   id="svg2"
   version="1.1"
   inkscape:version="0.91 r13725"
   sodipodi:docname="ic.svg">
  <defs
     id="defs4">
    <pattern
       y="0"
       x="0"
       height="6"
       width="6"
       patternUnits="userSpaceOnUse"
       id="EMFhbasepattern" />
  </defs>
  <sodipodi:namedview
     id="base"
     pagecolor="#000000"
     bordercolor="#666666"
     borderopacity="1.0"
     inkscape:pageopacity="0"
     inkscape:pageshadow="2"
     inkscape:zoom="1.979899"
     inkscape:cx="193.9126"
     inkscape:cy="66.258865"
     inkscape:document-units="px"
     inkscape:current-layer="layer1"
     showgrid="true"
     fit-margin-top="0"
     fit-margin-left="0"
     fit-margin-right="0"
     fit-margin-bottom="0"
     inkscape:window-width="1366"
     inkscape:window-height="715"
     inkscape:window-x="-4"
     inkscape:window-y="26"
     inkscape:window-maximized="1"
     inkscape:snap-grids="false"
     inkscape:snap-to-guides="false"
     inkscape:snap-others="true">
    <inkscape:grid
       type="xygrid"
       id="grid4172"
       spacingx="49.999995"
       spacingy="50.000001" />
  </sodipodi:namedview>
  <metadata
     id="metadata7">
    <rdf:RDF>
      <cc:Work
         rdf:about="">
        <dc:format>image/svg+xml</dc:format>
        <dc:type
           rdf:resource="http://purl.org/dc/dcmitype/StillImage" />
        <dc:title></dc:title>
      </cc:Work>
    </rdf:RDF>
  </metadata>
  <g
     inkscape:label="Layer 1"
     inkscape:groupmode="layer"
     id="layer1"
     transform="translate(-24.176989,-257.96777)">
    <path
       style="fill:#f9f9f9;fill-opacity:1;fill-rule:evenodd;stroke:none"
       d="m 42.334323,283.89172 c 1.918605,1.33033 3.79815,2.73551 5.479733,4.35569 1.293044,0.80299 3.048552,0.17221 3.847455,-1.03655 1.117436,-1.05131 2.426066,-1.87079 3.566365,-2.89517 1.289012,-0.25589 0.728569,1.6088 0.786924,2.37168 -0.004,1.42536 0.125715,2.85712 -0.05117,4.27722 -0.495482,0.92764 -1.678855,0.44041 -2.505514,0.49333 -3.154824,0.0669 -6.310013,0.0138 -9.465381,0.0225 -1.071552,0.53023 -2.120205,-0.78203 -1.697139,-1.79802 0.161148,-1.69188 -0.03926,-3.3927 0.04153,-5.08973 3.18e-4,-0.23366 -3.29e-4,-0.46744 -0.0028,-0.70098 z m 1.266912,-1.5482 c 3.715147,0 7.430292,0 11.145438,0 -1.680176,1.64997 -3.554987,3.08394 -5.451366,4.47373 -1.740748,-1.04369 -3.162539,-2.51881 -4.780882,-3.73123 -0.304397,-0.2475 -0.608793,-0.49501 -0.91319,-0.7425 z m -2.901917,9.43508 c 0.489937,1.3522 2.154703,1.49727 3.386327,1.4002 4.006035,-0.0876 8.014081,0.0209 12.01959,-0.10208 1.367457,-0.21355 1.888845,-1.76484 1.614717,-2.97008 -0.04402,-2.71876 0.293887,-5.4571 -0.138906,-8.15942 -0.627895,-1.41643 -2.405632,-1.44145 -3.728671,-1.32841 -3.841051,0.14308 -7.692269,-0.15823 -11.527944,0.097 -1.328433,0.19573 -1.906751,1.56311 -1.69941,2.77288 7.76e-4,2.71675 -0.203984,5.44521 0.05853,8.15466 l 0.01577,0.13529 0,0 z"
       id="path4141"
       inkscape:connector-curvature="0" />
    <path
       inkscape:connector-curvature="0"
       id="path4143"
       d="m 47.784373,380.51346 c 0.188318,-0.94013 -1.361091,-3.27461 -2.234234,-3.40439 -0.3424,-0.0486 -0.564961,0.0568 -0.770413,0.20272 -0.933062,0.68888 -1.763411,1.36165 -2.140054,2.60183 -0.907395,2.98311 1.421002,5.80375 3.184414,7.69256 1.917477,2.04249 4.947817,4.02033 7.961023,2.79649 0.590654,-0.2432 1.93462,-1.22408 2.088694,-1.71854 0.248245,-0.76181 -0.633448,-1.3536 -1.027217,-1.71829 -0.111297,-0.10538 -0.385219,-0.33248 -0.522192,-0.42981 -0.821774,-0.57545 -1.712042,-1.11846 -2.670798,-0.24297 -0.975873,0.88354 -1.284029,1.31312 -2.516698,0.5835 -0.847475,-0.51056 -3.509697,-3.0558 -3.141629,-4.34476 0.222578,-0.79426 1.583653,-0.97258 1.789104,-2.01834 z"
       style="fill:#f9f9f9;fill-opacity:1;fill-rule:evenodd;stroke:none" />
    <path
       inkscape:connector-curvature="0"
       id="path4145"
       d="m 46.585373,332.2475 c 1.206975,-0.36468 0.890268,0.75378 0.890268,1.71025 0,0.80255 0.154066,1.95369 -0.231128,2.4723 -1.035809,0.17027 -0.744745,-0.87525 -0.744745,-1.72635 0,-0.72961 -0.119856,-1.87246 0.08561,-2.4562 z m -2.345515,3.29901 c 0.54786,0.0164 2.448219,-0.14587 1.71205,0.77011 -0.162641,0.21077 -2.379758,0.41347 -2.636554,-0.081 0,0 -0.291039,-3.71248 0.111272,-3.98813 0.273947,-0.18637 0.659141,-0.0973 0.770421,0.15417 z m 4.682454,0.87549 c -1.061477,0.17026 -0.778988,-0.75377 -0.778988,-1.62121 0,-0.42151 -0.0856,-2.22081 0.09415,-2.4723 0.530743,-0.72132 1.489498,0.835 1.968872,1.49167 l 0.65059,0.72938 c 0.03423,-0.76182 -0.119856,-1.81562 0.196885,-2.34253 1.138514,-0.18637 0.813206,0.74572 0.813206,1.6617 0,0.74571 0.09418,1.84001 -0.07703,2.48035 -0.821782,0.33225 -0.898835,-0.18637 -1.951745,-1.53192 -0.248246,-0.31615 -0.376652,-0.5513 -0.684809,-0.72962 -0.0086,0.95648 0.145516,1.85636 -0.231128,2.33448 z m 6.326018,-3.46927 c -0.556411,0.15393 -1.121397,0.10538 -1.712051,0.10538 l -0.04279,0.7945 c 1.343949,0 1.900359,-0.17027 1.754844,0.72937 -0.573536,0.29176 -0.941629,0.18637 -1.746294,0.19466 l 0,0.76182 c 0.770421,0.0244 1.241244,-0.10538 1.754861,0.21076 0.111281,0.89159 -0.462256,0.72962 -1.258362,0.72962 -1.771978,-0.008 -1.49804,0.18637 -1.49804,-2.99116 l 0.05991,-1.24822 c 1.224118,-0.16222 1.421003,-0.12978 2.653671,-0.0161 z m -7.610048,-5.64159 c -2.679373,0.38098 -4.750941,1.45094 -5.966492,2.81272 -1.386768,1.54015 -2.388317,3.89878 -1.15564,6.42791 1.147073,2.33448 3.59531,3.89885 6.394505,4.40137 0.624897,0.11342 1.463797,0.12976 1.60077,0.66472 0.291039,1.18334 -1.609345,3.50977 2.970412,0.60789 1.951721,-1.24017 4.708122,-3.09653 5.915123,-4.9607 3.552491,-5.50395 -3.004655,-10.89416 -9.758678,-9.95391 z"
       style="fill:#f9f9f9;fill-opacity:1;fill-rule:evenodd;stroke:none" />
    <rect
       style="fill:#ffffff;fill-opacity:1;stroke:none;stroke-width:4.28412151;stroke-linecap:round;stroke-linejoin:round;stroke-miterlimit:4;stroke-dasharray:none;stroke-dashoffset:0;stroke-opacity:1"
       id="rect4155"
       width="400"
       height="3.7888787"
       x="24.176973"
       y="407.31992" />
    <rect
       style="fill:#1a1a1a;fill-opacity:1;stroke:none;stroke-width:4.28412151;stroke-linecap:round;stroke-linejoin:round;stroke-miterlimit:4;stroke-dasharray:none;stroke-dashoffset:0;stroke-opacity:1"
       id="rect4155-4"
       width="50"
       height="3.5329828"
       x="24.176973"
       y="407.57581" />
  </g>
</svg>
